<?xml version="1.0" encoding="UTF-8" standalone="no"?>
<svg
   xmlns:dc="http://purl.org/dc/elements/1.1/"
   xmlns:cc="http://creativecommons.org/ns#"
   xmlns:rdf="http://www.w3.org/1999/02/22-rdf-syntax-ns#"
   xmlns:svg="http://www.w3.org/2000/svg"
   xmlns="http://www.w3.org/2000/svg"
   xmlns:sodipodi="http://sodipodi.sourceforge.net/DTD/sodipodi-0.dtd"
   xmlns:inkscape="http://www.inkscape.org/namespaces/inkscape"
   height="826.76001"
   width="826.76001"
   id="svg3283"
   version="1.1"
   inkscape:version="0.48.4 r9939"
   sodipodi:docname="wales.svg">
  <metadata
     id="metadata3401">
    <rdf:RDF>
      <cc:Work
         rdf:about="">
        <dc:format>image/svg+xml</dc:format>
        <dc:type
           rdf:resource="http://purl.org/dc/dcmitype/StillImage" />
      </cc:Work>
    </rdf:RDF>
  </metadata>
  <sodipodi:namedview
     pagecolor="#ffffff"
     bordercolor="#666666"
     borderopacity="1"
     objecttolerance="10"
     gridtolerance="10"
     guidetolerance="10"
     inkscape:pageopacity="0"
     inkscape:pageshadow="2"
     inkscape:window-width="1162"
     inkscape:window-height="746"
     id="namedview3399"
     showgrid="false"
     inkscape:zoom="0.87287302"
     inkscape:cx="413.37994"
     inkscape:cy="406.07144"
     inkscape:window-x="0"
     inkscape:window-y="0"
     inkscape:window-maximized="0"
     inkscape:current-layer="svg3283" />
  <defs
     id="defs550" />
  <rect
     height="248.03149"
     id="rect667"
     style="font-size:12px;fill:#ffffff;fill-opacity:1;fill-rule:evenodd;stroke-width:1pt"
     width="826.75989"
     x="0"
     y="330.69702" />
  <rect
     height="413.32999"
     id="rect669"
     style="font-size:12px;fill:#00ab39;fill-opacity:1;fill-rule:evenodd;stroke-width:1pt"
     width="826.75989"
     x="0"
     y="413.43002" />
  <path
     style="font-size:12px;fill:#d21034;fill-rule:evenodd;stroke:#000000;stroke-width:1.72289002;stroke-linejoin:round"
     d="m 541.625,194.28707 c -52.282,28.904 -99.0655,58.9827 -145.0625,97.3125 -22.061,19.27 -15.8345,34.6315 -16.6875,51.9375 0.711,11.618 -2.51125,22.4265 -9.65625,28.9375 -16.35,3.306 -32.7135,6.6315 -49.0625,9.9375 -1.566,-4.523 -3.1215,-9.0405 -4.6875,-13.5625 1.495,-6.94 7.2315,-10.352 19.3125,-6 0.952,-8.923 -6.227,-12.55525 -14.625,-15.65625 -2.885,-2.246 -6.468,-3.9715 -6,-11.6875 -1.412,-17.467 26.615,1.25 26.875,1.25 0.261,0 -0.9335,-17.62725 -13.8125,-21.15625 -7.022,-2.485 -9.9935,-9.892 -7.3125,-15.375 5.618,-11.209 16.19325,0.8785 24.28125,1.3125 -0.303,-7.317 -2.3865,-12.5315 -8.6875,-18.4375 -3.392,-2.087 -11.7215,-3.65725 -11.9375,-7.15625 -0.177,-4.752 7.80725,-6.78375 18.78125,-5.46875 -2.288,-6.6597 -9.6675,-10.96845 -19.8125,-14.09375 -2,-3.4787 -4,-6.9588 -6,-10.4375 -2.841,-5.26 -4.11525,-5.4017 2.46875,-15.375 5.915,-3.8266 13.7735,-9.2361 19.6875,-13.0625 -2.175,-0.261 -4.35625,-0.52035 -6.53125,-0.78125 0.869,-7.1313 0.969,-9.5307 2.625,-21.375 -6.346,8.6716 -14.27525,7.1218 -21.40625,10.6875 0,0 -20.33,3.6092 -26.875,12.25 -0.261,0 -51.125,-2.59375 -51.125,-2.59375 -10.84,1.5095 -20.09925,4.5822 -21.90625,15.125 -24.792,2.5024 -50.75525,0.2888 -69.65625,24 12.87,-0.6087 24.13575,-3.6737 38.59375,-1.8125 0,0 12.321,0.23265 14.875,13.28125 0.261,0.521 4.1875,0.53125 4.1875,0.53125 1.566,1.217 3.1215,2.43925 4.6875,3.65625 0.609,-1.652 1.2035,-3.31675 1.8125,-4.96875 1.392,0.957 2.7955,1.918 4.1875,2.875 0.434,-1.826 0.8785,-3.64255 1.3125,-5.46875 1.392,0.9565 2.76425,1.9184 4.15625,2.875 0.087,-2.1741 0.19525,-4.35715 0.28125,-6.53125 1.827,1.3044 3.64275,2.60185 5.46875,3.90625 l 0,-8.59375 c 0,0 20.19175,-0.0473 26.34375,12.78125 0.262,0.261 -56.66925,10.463 -111.65625,5.75 5.306,-2.609 10.60125,-5.23485 15.90625,-7.84375 -20.05,-4.0763 -38.90055,-7.76095 -56.59375,-21.65625 6.6772,25.1367 41.181,54.66325 48.25,54.53125 0,0.261 -6.78125,-12.25 -6.78125,-12.25 19.916,0.87 39.835,1.72475 59.75,2.59375 2.175,6.61 1.21325,14.01975 6.53125,19.84375 0,0 -3.29875,10.925 4.03125,15.375 0.262,0.521 8.75,-22.15625 8.75,-22.15625 0,0 2.59975,6.10025 5.21875,10.15625 3.795,-19.508 25.03125,-22.6875 25.03125,-22.6875 0,0 4.4375,10.1765 4.4375,10.4375 -6.636,0.96 -14.8905,14.48625 -10.4375,21.90625 -4.45,0.085 -12.35125,13.18575 -9.90625,20.34375 -3.741,3.723 -13.0585,8.68625 -10.6875,24.28125 -7.334,1.572 -11.67625,14.99075 -9.40625,29.21875 -11.349,10.564 -8.5635,29.9555 1.5625,37.8125 -4.203,3.74 -6.79025,6.61575 -6.78125,11.21875 -3.996,-1.485 -7.67925,-0.244 -9.40625,2.375 -4.898,-5.021 -11.9325,-9.41775 -16.9375,-4.71875 -1.296,-5.94 -9.032,-12.47475 -17.5,-11.71875 0.496,-6.264 -2.75475,-14.01775 -11.71875,-16.71875 0,0 -1.81375,-29.358 -10.71875,-38.875 -0.873,-5.326 0.50975,-8.9475 7.84375,-13.3125 7.323,-3.906 8.87875,-6.935 8.34375,-18 2.887,-7.396 5.08075,-14.9365 -3.90625,-20.0625 0.271,8.795 -2.429,13.0315 -6,16.9375 -4.266,-0.621 -5.755,4.35725 -8.625,6.53125 -4.016,-5.413 8.47175,-13.79875 -0.78125,-25.84375 -0.521,-0.523 -6.459,-15.723 -21.125,-15.375 6.971,4.082 9.91925,10.951 9.90625,18 -4.624,13.045 -6.97375,23.12675 -2.34375,38.09375 -6.093,-9.129 -9.54875,-26.482 -14.59375,-29.5 -4.422,-0.863 -6.5822,-11.32175 -23.75,-8.34375 7.4057,1.992 9.7571,7.64725 11.75,12.78125 -4.541,2.342 -2.28505,8.51925 1.03125,12.78125 -0.6297,10.015 5.36975,15.86575 14.34375,19.59375 -1.478,13.653 -2.9595,27.2835 -4.4375,40.9375 -3.565,-0.455 -9.05065,13.42475 -11.21875,13.84375 -3.4888,2.171 -9.58125,8.00925 -2.59375,9.65625 -2.0758,7.491 -4.00105,12.0085 -15.15625,13.5625 0,0 11.7867,6.99125 21.5625,-4.96875 10.474,-0.262 7.02975,-12.752 12.09375,-18.25 0,-0.26 2.8745,-2.0655 7.0625,-13.0625 1.832,9.819 11.9075,39.8885 34.6875,54.8125 19.856,21.256 36.175,41.33025 36,69.65625 7.75,-7.209 12.3785,-18.625 15.9375,-29.5 10.777,-3.748 26.1915,-5.1795 39.9375,-4.5625 -2.358,4.961 -4.99675,9.7215 -1.59375,12.9375 -9.593,3.295 -11.69475,10.25675 -7.84375,17.21875 -10.112,6.867 -10.7775,11.2805 -10.9375,22.6875 -18.708,23.985 -30.24925,23.18875 -48.78125,16.96875 -6.086,-3.572 -15.50475,-8.714 -19.84375,-6 -8.004,-5.334 -19.51225,-6.127 -21.40625,6 6.006,-4.978 9.592,-4.01875 14.375,0.78125 -0.962,2.436 -1.7655,4.862 1.8125,6.25 -1.566,1.739 -3.1215,3.47975 -4.6875,5.21875 -8.613,-1.324 -20.19375,-1.25025 -23.21875,11.21875 4.424,-3.665 14.24025,-4.52525 22.15625,-1.03125 1.479,0.522 2.9585,1.0395 4.4375,1.5625 0.174,2 0.35825,4 0.53125,6 0,0 -11.732,-1.81125 -14.875,17.21875 11,-11.702 18.78125,-8.625 18.78125,-8.625 4.239,6.205 19.8405,5.2705 31.0625,-4.9375 15.762,-8.812 20.35725,3.8515 30.53125,-4.4375 8.436,-6.292 18.41725,-2.10825 25.28125,5.21875 7.915,2.969 16.19975,5.413 22.71875,0 0,0 7.96325,-5.081 15.90625,3.125 0.087,-9.253 -6.47,-14.16875 -15.375,-14.34375 -0.87,-0.87 -0.359,0.34 -2.625,-2.625 -8.349,-1.74 -17.73025,-1.03375 -25.03125,-5.21875 3.442,-13.065 8.457,-24.90375 18.25,-34.96875 12.088,-12.958 20.987,-18.8495 36.25,-38.6875 -0.589,11.211 8.00325,23.6755 12.53125,35.0625 0,0 9.1165,-14.555 10.4375,-26.375 0.26,0 11.4235,-5.81 16.1875,-10.75 10.056,6.237 26.44625,-4.99325 37.03125,-14.28125 6.525,2.47 11.4785,2.293 19.0625,0 -6.088,12.39 3.52125,23.8845 18.78125,28.6875 1.411,10.938 12.45875,13.2275 29.21875,13.3125 0.706,6.436 10.6875,7.3125 10.6875,7.3125 -6.307,2.94 -9.595,5.88625 -9.375,12.53125 -6.465,0.044 -11.3605,1.671 -13.0625,9.125 -8.876,0.152 -17.9215,0.83275 -25.5625,5.21875 -8.175,-1.269 -18.12125,-4.65675 -24.53125,-11.21875 -3.306,-2.783 -4.13125,-6.79575 -9.90625,-8.34375 -3.66,-4.326 -8.03925,-3.36075 -9.40625,0.78125 -3.783,-2.955 -17.97175,-4.328 -20.34375,9.125 6.624,-4.848 12.56375,-6.69625 16.71875,-0.78125 -2.264,4.107 5.516,6.45575 12.25,8.09375 4.776,0.296 13.24725,4.647 15.90625,12 -6.16,1.869 -15.49625,1.25275 -21.65625,-3.40625 -5.476,-4.582 -12.8725,-4.03625 -16.9375,-1.03125 -5.64,-3.596 -19.07075,3.1925 -19.59375,14.0625 5.658,-5.184 10.8085,-7.69125 15.9375,-4.40625 -2.553,0.606 -1.5825,0.85475 -1.3125,2.34375 4.348,2.522 8.68325,5.0405 13.03125,7.5625 -6.394,1.687 -12.405,4.23725 -9.625,16.15625 0,0 5.2085,-10.296 16.9375,-6.5 0.261,-0.261 1.61675,3.67725 4.96875,1.03125 5.076,-5.776 16.682,-8.362 26.875,-9.375 8.18,-0.977 16.34675,-3.38675 23.46875,1.28125 6.341,-3.262 13.401,-5.456 20.625,-0.25 8.523,2.696 14.7455,12.63075 25.5625,8.09375 5.379,-3.723 11.99025,-3.91175 18.78125,3.65625 0.083,-9.543 -7.06875,-12.742 -17.21875,-14.875 -2.349,-1.393 -4.68225,-2.7955 -7.03125,-4.1875 -6.522,-0.957 -13.07175,0.199 -19.59375,-2.875 34.134,-8.824 58.06225,-27.85925 74.90625,-55.03125 5.392,1.913 10.76425,3.80475 16.15625,5.71875 3.825,0.245 4.117,1.5745 12,3.9375 0.297,-11.614 -4.6885,-23.57725 -25.5625,-24.78125 l -27.40625,-10.4375 c -5.817,-6.135 -8.44625,-19.152 -1.03125,-26.875 7.258,-6.463 8.5245,-5.6885 13.3125,-13.5625 5.822,-0.53 11.3105,5.46875 16.6875,5.46875 2.554,7.587 17.274,14.294 26.625,12 5.859,5.187 17.00775,8.07025 29.21875,3.90625 6.93,6.067 15.95875,8.60025 26.59375,3.90625 2.823,2.823 8.78325,5.06825 15.65625,3.65625 0.522,0 3.47275,7.5415 10.96875,10.1875 -3.268,3.176 -1.25825,16.96625 2.09375,21.90625 -2.288,5.302 -3.0085,10.9585 -1.0625,16.4375 -7.559,4.86 -9.09775,8.4755 -5.71875,16.6875 -9.899,15.906 -21.741,17.7245 -32.875,12.8125 -4.002,-2.522 -7.998,-5.07075 -12,-7.59375 -4.261,-4.175 -8.52025,-8.325 -12.78125,-12.5 -2.17,-2.037 -6.65975,-2.6775 -7.59375,1.8125 0,0 -16.39975,-3.6575 -17.71875,10.1875 6.797,-6.62 16.4375,-0.79225 16.4375,-0.53125 0,0.261 -2.29625,1.82275 -0.53125,4.46875 0.39718,-0.33099 11.97331,4.3202 22.28125,8.75 5.60044,2.12258 6.83068,2.78594 9.28125,4.09375 -2.68477,-1.22909 -5.85798,-2.62261 -9.28125,-4.09375 -6.2751,-2.37828 -12.38826,-4.2792 -14.1875,-3.8125 -5.84,-0.545 -12.035,-1.27 -14.875,3.125 -6.277,2.656 -16.08325,4.7835 -15.65625,16.4375 4.239,-6.94 10.05475,-6.647 17.46875,-6 -0.174,0.522 -0.326,1.0405 -0.5,1.5625 8.04965,3.66627 6.52317,-0.99842 14.03125,-1.6875 6.27698,-0.5761 15.17389,1.67256 19.875,3.25 -5.913,1.739 -13.954,1.00975 -17.75,5.21875 -0.696,1.392 -3.1315,0.82325 -2.0625,4.15625 0,0 -11.534,-0.29775 -14.625,15.65625 11.728,-7.509 20.615,-7.28125 20.875,-7.28125 0.261,0 3.65625,0.78125 3.65625,0.78125 0,0 14.08375,-9.40625 14.34375,-9.40625 0.262,0 13.6375,-5.92275 19.8125,0.78125 5.389,2.649 11.15275,2.81775 16.71875,-0.53125 10.966,-4.77 21.2295,-5.10425 31.3125,1.59375 l 9.125,5.46875 c 1.304,-0.869 2.60225,-1.755 3.90625,-2.625 0,0 10.32925,-2.91675 17.90625,6.28125 -3.132,-15.915 -14.5,-16.4375 -14.5,-16.4375 -0.87,-0.783 -1.756,-1.56075 -2.625,-2.34375 -5.392,-2.087 -10.76425,-4.19425 -16.15625,-6.28125 -2.354,-5.826 -8.268,-10.46475 -2.375,-17.46875 6.02,-29.926 13.2175,-52.40075 1.5625,-82.71875 10.871,4.696 19.005,19.21675 32.625,14.09375 0,-12.176 -44.8225,-35.294 -79.0625,-53.875 56.094,-2.87 123.51475,-44.27725 97.59375,-96.90625 4.088,-12.697 8.162,-25.39675 12.25,-38.09375 5.77,11.623 17.4535,20.483 27.9375,24.25 -8.641,-16.496 -13.6,-66.9295 -8.625,-101.75 -22.603,27.9219 -47.56275,52.702 -74.09375,77.875 13.05,3.05 24.4525,0.90375 37.0625,-0.65625 -3.566,7.305 -7.02875,14.6325 -10.59375,21.9375 -34.473,-20.188 -74.947,-5.03775 -75.25,21.90625 1.179,31.42 40.02826,35.88631 62.4375,24.9375 -4.443,28.647 -70.28125,18.09375 -70.28125,18.09375 -23.394,-8.064 -45.6145,-6.683 -70.1875,-6.5 5.106,-15.71 33.4605,-29.652 55.0625,-23.5 -30.243,-33.909 4.27425,-76.00775 45.90625,-88.96875 -45.376,-14.9664 -6.30475,-49.55815 27.65625,-74.34375 0,0 -97.6605,41.10065 -106.5625,40.96875 -27.755,-2.0957 -20.13625,-35.04465 -9.53125,-52.71875 z m -311.2696,39.97459 c 1.00592,-0.54512 7.47821,-0.74093 11.71381,0.29119 4.40394,1.07314 9.74628,1.69173 9.67168,3.003 -2.03868,3.41238 -7.03246,7.52689 -11.95401,7.27927 -4.92155,-0.24762 -7.79167,-3.17768 -9.43148,-10.57346 z"
     id="path554"
     inkscape:connector-curvature="0" />
  <path
     d="m 667.73073,360.38298 c -3.59998,10.37136 -34.84039,15.67766 -36.93497,0.32544 -1.0657,-7.81583 18.50267,-19.87179 36.93497,-0.32544 z"
     id="path555"
     style="font-size:12px;fill:#ffffff;fill-rule:evenodd;stroke:#000000;stroke-width:1.52547207pt"
     inkscape:connector-curvature="0" />
  <path
     d="m 715.956,281.97557 c 0,0 -2.136,25.915 -5.268,31.184"
     id="path556"
     style="font-size:12px;fill:none;stroke:#000000;stroke-width:1.37831001pt;stroke-linecap:round"
     inkscape:connector-curvature="0" />
  <path
     d="m 703.853,283.39957 c 0,0.142 -10.822,29.191 -10.822,29.191"
     id="path557"
     style="font-size:12px;fill:none;stroke:#000000;stroke-width:1.72500002;stroke-linecap:round;stroke-dasharray:none"
     inkscape:connector-curvature="0" />
  <path
     d="m 682.472,334.56257 c 2.167,1.686 10.539,6.154 16.069,16.496"
     id="path558"
     style="font-size:12px;fill:none;stroke:#000000;stroke-width:1.37831001pt"
     inkscape:connector-curvature="0" />
  <path
     d="m 668.0309,360.72384 c 0,0 7.78983,6.79942 0.9361,23.20473"
     id="path559"
     style="font-size:12px;fill:none;stroke:#000000;stroke-width:1.37831001pt"
     inkscape:connector-curvature="0" />
  <path
     d="m 552.061,409.13257 c 15.38,-1.851 37.449,32.323 48.698,39.016"
     id="path560"
     style="font-size:12px;fill:none;stroke:#000000;stroke-width:1.37831001pt"
     inkscape:connector-curvature="0" />
  <path
     d="m 666.118,596.09657 c 0,0 -6.408,4.698 -2.99,10.822"
     id="path561"
     style="font-size:12px;fill:none;stroke:#000000;stroke-width:1.37831001pt"
     inkscape:connector-curvature="0" />
  <path
     d="m 558.469,601.79157 c 0,0 7.688,2.136 6.835,8.544"
     id="path562"
     style="font-size:12px;fill:none;stroke:#000000;stroke-width:1.37831001pt"
     inkscape:connector-curvature="0" />
  <path
     d="m 542.948,579.43657 c 0,0 5.553,5.839 1.851,10.679"
     id="path563"
     style="font-size:12px;fill:none;stroke:#000000;stroke-width:1.37831001pt"
     inkscape:connector-curvature="0" />
  <path
     d="m 551.776,556.93857 c 0,0 7.404,3.559 -1.424,9.683"
     id="path564"
     style="font-size:12px;fill:none;stroke:#000000;stroke-width:1.37831001pt"
     inkscape:connector-curvature="0" />
  <path
     d="m 458.793,595.81157 c 0,0 -6.408,5.411 -1.708,11.535"
     id="path565"
     style="font-size:12px;fill:none;stroke:#000000;stroke-width:1.37831001pt"
     inkscape:connector-curvature="0" />
  <path
     d="m 349.577,597.37857 c 0,0 11.677,0.569 7.547,9.397"
     id="path566"
     style="font-size:12px;fill:none;stroke:#000000;stroke-width:1.37831001pt"
     inkscape:connector-curvature="0" />
  <path
     d="m 340.891,577.72757 c 0,0 3.901,7.23 -3.646,9.223"
     id="path567"
     style="font-size:12px;fill:none;stroke:#000000;stroke-width:1.37831001pt"
     inkscape:connector-curvature="0" />
  <path
     d="m 355.557,553.66257 c 0,0 3.846,7.689 -3.56,8.686"
     id="path568"
     style="font-size:12px;fill:none;stroke:#000000;stroke-width:1.37831001pt"
     inkscape:connector-curvature="0" />
  <path
     d="m 347.156,595.66957 c 0,0 11.249,-9.683 16.518,-4.557 5.268,5.126 27.624,-4.413 27.624,-4.413"
     id="path569"
     style="font-size:12px;fill:none;stroke:#000000;stroke-width:1.37831001pt"
     inkscape:connector-curvature="0" />
  <path
     d="m 398.988,572.31657 -18.511,9.682"
     id="path570"
     style="font-size:12px;fill:none;stroke:#000000;stroke-width:1.37831001pt"
     inkscape:connector-curvature="0" />
  <path
     d="m 425.046,567.04857 c 0,0 13.669,14.667 23.637,-3.134"
     id="path571"
     style="font-size:12px;fill:none;stroke:#000000;stroke-width:1.37831001pt"
     inkscape:connector-curvature="0" />
  <path
     d="m 438.289,557.79157 c 9.255,7.404 5.463,11.841 34.513,-7.666"
     id="path572"
     style="font-size:12px;fill:none;stroke:#000000;stroke-width:1.37831001pt"
     inkscape:connector-curvature="0" />
  <path
     d="m 447.117,545.40357 c 0,0 24.776,2.564 25.915,4.415 2.849,-2.991 24.972,-20.911 -2.225,-23.473 -4.555,18.654 -23.263,19.343 -23.69,19.058 z"
     id="path573"
     style="font-size:12px;fill:none;stroke:#000000;stroke-width:1.37831001pt"
     inkscape:connector-curvature="0" />
  <path
     d="m 152.427,600.84057 c 0,0 9.123,1.336 3.782,8.678"
     id="path574"
     style="font-size:12px;fill:none;stroke:#000000;stroke-width:1.37831001pt"
     inkscape:connector-curvature="0" />
  <path
     d="m 148.422,583.48357 c 0,0 6.675,4.229 -0.89,9.791"
     id="path575"
     style="font-size:12px;fill:none;stroke:#000000;stroke-width:1.37831001pt"
     inkscape:connector-curvature="0" />
  <path
     d="m 158.881,565.01457 c 0,0 3.115,8.01 -7.344,6.898"
     id="path576"
     style="font-size:12px;fill:none;stroke:#000000;stroke-width:1.37831001pt"
     inkscape:connector-curvature="0" />
  <path
     d="m 152.204,594.83257 c 0,0 12.685,-10.459 19.36,-4.005 6.454,2.226 10.013,1.78 10.013,1.78"
     id="path578"
     style="font-size:12px;fill:none;stroke:#000000;stroke-width:1.37831001pt"
     inkscape:connector-curvature="0" />
  <path
     d="m 266.358,594.16557 c -0.223,0 -3.783,7.565 -0.667,11.347"
     id="path579"
     style="font-size:12px;fill:none;stroke:#000000;stroke-width:1.37831001pt"
     inkscape:connector-curvature="0" />
  <path
     d="m 153.318,577.69857 c 8.01,-0.445 9.735,3.172 17.023,3.172 8.396,0.256 16.577,-3.172 27.259,-6.065"
     id="path580"
     style="font-size:12px;fill:none;stroke:#000000;stroke-width:1.37831001pt"
     inkscape:connector-curvature="0" />
  <path
     d="m 99.0221,336.92957 c 0,0 5.1179,2.448 10.0139,-5.117"
     id="path581"
     style="font-size:12px;fill:none;stroke:#000000;stroke-width:1.37831001pt"
     inkscape:connector-curvature="0" />
  <path
     d="m 95.9068,433.05857 c 0,0 8.2332,2.448 6.8982,8.679"
     id="path582"
     style="font-size:12px;fill:none;stroke:#000000;stroke-width:1.37831001pt"
     inkscape:connector-curvature="0" />
  <path
     d="m 127.727,323.13357 c 0,0 0,4.895 10.236,-2.67"
     id="path583"
     style="font-size:12px;fill:none;stroke:#000000;stroke-width:1.37831001pt"
     inkscape:connector-curvature="0" />
  <path
     d="m 138.854,346.27657 c 0,0 -7.789,20.917 1.557,25.811"
     id="path584"
     style="font-size:12px;fill:none;stroke:#000000;stroke-width:1.37831001pt"
     inkscape:connector-curvature="0" />
  <path
     d="m 148.199,340.49057 c 0,0 4.005,8.679 9.569,3.783"
     id="path585"
     style="font-size:12px;fill:none;stroke:#000000;stroke-width:1.37831001pt"
     inkscape:connector-curvature="0" />
  <path
     d="m 139.744,285.52757 -6.454,-10.458 5.786,-2.003"
     id="path586"
     style="font-size:12px;fill:none;stroke:#000000;stroke-width:1.37831001pt"
     inkscape:connector-curvature="0" />
  <path
     d="m 204.053,232.34507 c 0,0 6.23,7.7881 6.452,12.2385 0.223,4.4505 -4.672,7.7885 -4.672,7.7885"
     id="path587"
     style="font-size:12px;fill:none;stroke:#000000;stroke-width:1.37831001pt"
     inkscape:connector-curvature="0" />
  <path
     d="m 199.601,241.91337 c 0,0 -1.334,4.6728 -1.779,7.7883 0,2.2252 -7.122,5.1181 -7.122,5.1181"
     id="path588"
     style="font-size:12px;fill:none;stroke:#000000;stroke-width:1.37831001pt"
     inkscape:connector-curvature="0" />
  <path
     d="m 284.828,218.77117 c 0.222,0.2225 -0.891,6.2305 -4.229,9.791"
     id="path589"
     style="font-size:12px;fill:none;stroke:#000000;stroke-width:1.37831001pt"
     inkscape:connector-curvature="0" />
  <path
     d="m 223.857,235.46027 c 0,0 9.77417,-2.68983 17.08792,-1.16496 7.24495,1.48884 16.95808,4.05776 16.95808,4.05776 0,0 11.57,-1.5576 15.354,-4.2279"
     id="path590"
     style="font-size:12px;fill:none;stroke:#000000;stroke-width:1.37831001pt"
     inkscape:connector-curvature="0" />
  <path
     d="m 234.761,233.90267 12.016,2.2253 c 0,0 -8.456,11.3486 -12.016,-2.2253 z"
     id="path592"
     style="font-size:12px;fill-rule:evenodd;stroke:#000000;stroke-width:1.37831001pt;stroke-linejoin:round"
     inkscape:connector-curvature="0" />
  <path
     d="m 251.004,267.50357 15.8,30.263 7.565,-11.349 4.006,7.788 6.453,-11.348 11.126,7.12 -4.228,-13.796 9.345,-0.667 c 0,0 -2.448,-6.676 -10.904,-8.011 2.226,-1.7803 10.014,-6.8983 10.014,-6.8983 0,0 -4.449,-5.118 -11.348,-5.3406 2.225,-2.4476 5.34,-8.4558 5.118,-8.4558 -0.222,0 -6.899,-1.5576 -6.899,-1.5576 0,0 15.8,5.1179 28.038,-2.0027"
     id="path593"
     style="font-size:12px;fill:none;stroke:#000000;stroke-width:1.72289002;stroke-linecap:round;stroke-linejoin:round"
     inkscape:connector-curvature="0" />
  <path
     d="m 199.36,288.55857 24.274,-0.361 c 7.723,-0.115 20.442,-10.819 34.684,-7.481"
     id="path594"
     style="font-size:12px;fill:none;stroke:#000000;stroke-width:1.37831001pt"
     inkscape:connector-curvature="0" />
  <path
     d="m 202.94,287.97557 c 0,-0.223 1.78,-4.673 1.78,-4.673 l 1.98364,5.14436 3.19326,-0.0834 2.1072,-5.15754 1.73009,5.1769 3.1729,0 1.95728,-5.74827 2.95709,5.44282 2.51109,0.12743 1.97763,-6.62953 4.07719,4.74867 1.48063,-0.57339 1.26991,-6.63128 4.02774,4.63782 1.15535,-0.67754 1.86764,-6.53545 3.3459,4.85963 1.68446,-0.54918 1.56318,-5.49273 3.10982,5.04773"
     id="path595"
     style="font-size:12px;fill:none;stroke:#000000;stroke-width:1.37831001pt;stroke-linejoin:round"
     inkscape:connector-curvature="0" />
  <path
     d="m 304.188,239.46567 c 0,0 -12.463,-0.4451 -11.573,-5.3405 0.892,-5.563 13.13,-9.5684 13.13,-9.5684 0,0 16.243,-10.4585 18.691,-14.0189"
     id="path596"
     style="font-size:12px;fill:none;stroke:#000000;stroke-width:1.37831001pt"
     inkscape:connector-curvature="0" />
  <path
     d="m 307.079,218.32607 c 0,0 4.006,-4.0053 10.682,-2.0026"
     id="path597"
     style="font-size:12px;fill:none;stroke:#000000;stroke-width:1.37831001pt"
     inkscape:connector-curvature="0" />
  <path
     d="m 207.612,444.40757 c 0,0 -1.557,7.788 9.346,23.365 -3.115,17.356 13.195,30.996 19.649,33.221"
     id="path598"
     style="font-size:12px;fill:none;stroke:#000000;stroke-width:1.37831001pt"
     inkscape:connector-curvature="0" />
  <path
     d="m 151.917,413.27257 c -12.238,6.899 6.964,50.494 65.041,54.722"
     id="path599"
     style="font-size:12px;fill:none;stroke:#000000;stroke-width:1.37831001pt"
     inkscape:connector-curvature="0" />
  <path
     d="m 198.442,446.51357 c 0,0 4.052,12.803 0.714,18.812"
     id="path600"
     style="font-size:12px;fill:none;stroke:#000000;stroke-width:1.37831001pt"
     inkscape:connector-curvature="0" />
  <path
     d="m 181.734,441.92457 c 0,0 -4.829,9.382 -5.942,13.832"
     id="path601"
     style="font-size:12px;fill:none;stroke:#000000;stroke-width:1.37831001pt"
     inkscape:connector-curvature="0" />
  <path
     d="m 164.275,430.25157 c 0,0 -3.615,7.703 -8.066,9.929"
     id="path602"
     style="font-size:12px;fill:none;stroke:#000000;stroke-width:1.37831001pt"
     inkscape:connector-curvature="0" />
  <path
     d="m 370.276,372.08757 c 0,0 15.576,-0.222 31.153,-42.501 15.354,-57.855 137.073,-122.3865 139.521,-134.4027"
     id="path603"
     style="font-size:12px;fill:none;stroke:#000000;stroke-width:1.37831001pt"
     inkscape:connector-curvature="0" />
  <path
     d="m 414.618,303.86257 c 22.867,-12.693 93.476,-38.5749 140.574,-57.5612"
     id="path604"
     style="font-size:12px;fill:none;stroke:#000000;stroke-width:1.37831001pt;stroke-linecap:round"
     inkscape:connector-curvature="0" />
  <path
     d="m 651.728,208.58467 c 0,0 -216.193,101.0159 -219.34,106.3669 36.505,-11.016 191.333,-36.82 195.11,-34.617 -9.126,2.203 -196.998,45.315 -205.81,55.701 46.889,-1.574 145.075,15.105 160.494,31.154 -33.358,-7.552 -133.115,-22.343 -163.64,-15.735 22.344,5.351 107.939,60.737 107.939,69.548 -12.902,-12.272 -115.807,-54.757 -119.897,-50.665 23.6,14.161 56.96,66.714 56.958,79.617 -6.923,-11.014 -66.4,-74.898 -69.861,-70.807 6.294,8.813 18.766,84.222 12.39,87.717 0,-9.126 -23.09,-75.129 -24.978,-77.017 -4.721,1.258 -34.152,80.528 -28.321,87.899 -3.776,-26.433 0.628,-81.604 7.866,-79.402 -12.901,1.888 -54.078,56.18 -49.673,64.677 1.259,-13.532 3.1,-22.507 26.386,-67.509 -25.805,1.572 -79.302,35.246 -88.43,47.204 7.239,-21.398 52.555,-57.59 72.381,-60.107"
     id="path605"
     style="font-size:12px;fill:none;stroke:#000000;stroke-width:1.37831001pt;stroke-linejoin:round"
     inkscape:connector-curvature="0" />
  <path
     d="m 249.28,288.93657 12.975,0.161"
     id="path606"
     style="font-size:12px;fill:none;stroke:#000000;stroke-width:1.37831001pt"
     inkscape:connector-curvature="0" />
  <path
     d="m 198.025,265.24377 c 0,0 8.722,3.3378 26.812,-10.9835"
     id="path607"
     style="font-size:12px;fill:none;stroke:#000000;stroke-width:1.37831001pt"
     inkscape:connector-curvature="0" />
  <path
     d="m 256.28,429.77957 c -5.168,-6.676 3.876,-109.188 23.044,-135.893 -6.676,48.241 15.506,97.558 21.105,97.343"
     id="path608"
     style="font-size:12px;fill:none;stroke:#000000;stroke-width:1.37831001pt"
     inkscape:connector-curvature="0" />
  <path
     d="m 253.264,298.83957 c 0,0 9.046,9.907 19.384,8.184"
     id="path609"
     style="font-size:12px;fill:none;stroke:#000000;stroke-width:1.37831001pt"
     inkscape:connector-curvature="0" />
  <path
     d="m 243.144,321.45257 c 0,0 4.522,7.753 21.751,9.045"
     id="path610"
     style="font-size:12px;fill:none;stroke:#000000;stroke-width:1.37831001pt"
     inkscape:connector-curvature="0" />
  <path
     d="m 233.187,341.84257 c 0,0 11.679,14.283 27.4,12.13"
     id="path611"
     style="font-size:12px;fill:none;stroke:#000000;stroke-width:1.37831001pt"
     inkscape:connector-curvature="0" />
  <path
     d="m 222.684,366.24757 c 0,0 3.229,10.553 34.243,11.199"
     id="path612"
     style="font-size:12px;fill:none;stroke:#000000;stroke-width:1.37831001pt"
     inkscape:connector-curvature="0" />
  <path
     d="m 213.638,395.96857 c 0,0 14.43,12.92 41.566,8.829"
     id="path613"
     style="font-size:12px;fill:none;stroke:#000000;stroke-width:1.37831001pt"
     inkscape:connector-curvature="0" />
  <path
     d="m 215.146,433.22557 c 0,0 18.52,10.337 41.349,-3.661"
     id="path614"
     style="font-size:12px;fill:none;stroke:#000000;stroke-width:1.37831001pt"
     inkscape:connector-curvature="0" />
  <path
     d="m 528.497,392.73757 c 0,0 -12.922,10.984 -0.862,28.643 -40.058,-0.645 -61.592,17.875 -63.315,30.365 -51.041,-3.66 -41.78,11.416 -58.364,16.368 -22.182,-18.521 -54.702,-8.183 -52.548,10.337 -14.861,-20.89 -37.688,-10.767 -40.487,-5.599 -2.8,5.169 -1.723,-25.628 -1.723,-25.628 0,0 -14.86,6.677 -25.199,18.952 0.217,-8.183 0,-21.536 0,-25.843 -12.418,2.512 -24.407,2.654 -37.257,2.369"
     id="path615"
     style="font-size:12px;fill:none;stroke:#000000;stroke-width:1.37831001pt"
     inkscape:connector-curvature="0" />
  <path
     d="m 259.992,442.81457 c -0.216,0 -21.372,33.268 11.794,42.098"
     id="path616"
     style="font-size:12px;fill:none;stroke:#000000;stroke-width:1.37831001pt"
     inkscape:connector-curvature="0" />
  <path
     d="m 310.768,462.51457 c 0,0 -5.385,2.584 -7.323,2.153 -6.461,1.508 -5.17,16.584 3.014,15.722 2.799,-3.23 5.815,-7.753 5.815,-7.753"
     id="path617"
     style="font-size:12px;fill:none;stroke:#000000;stroke-width:1.37831001pt"
     inkscape:connector-curvature="0" />
  <path
     d="m 299.137,471.55957 c 0,0 -2.368,3.232 -6.03,-0.215 -1.939,-3.445 -8.829,15.507 3.231,16.152 2.153,-5.6 8.83,-7.107 8.83,-7.107"
     id="path618"
     style="font-size:12px;fill:none;stroke:#000000;stroke-width:1.37831001pt"
     inkscape:connector-curvature="0" />
  <path
     d="m 289.23,478.66557 c -9.476,-0.646 -14.644,20.245 3.662,7.11"
     id="path619"
     style="font-size:12px;fill:none;stroke:#000000;stroke-width:1.37831001pt"
     inkscape:connector-curvature="0" />
  <path
     d="m 282.554,481.68257 c 0,0 -10.553,-8.184 -10.121,3.23 -0.217,7.106 3.229,8.829 3.229,8.829 0.43,5.169 4.954,12.49 8.614,5.815 1.508,-6.461 -1.076,-9.261 -1.076,-9.261"
     id="path620"
     style="font-size:12px;fill:none;stroke:#000000;stroke-width:1.37831001pt"
     inkscape:connector-curvature="0" />
  <path
     d="m 227.206,554.04257 c -0.215,0 1.723,14.215 11.63,3.446 6.891,-14.428 28.643,-55.132 33.597,-69.131"
     id="path621"
     style="font-size:12px;fill:none;stroke:#000000;stroke-width:1.37831001pt"
     inkscape:connector-curvature="0" />
  <path
     d="m 257.357,477.15957 c 0,0 -15.291,4.307 -9.476,22.397 8.829,7.108 17.444,6.03 17.444,6.03"
     id="path622"
     style="font-size:12px;fill:none;stroke:#000000;stroke-width:1.37831001pt"
     inkscape:connector-curvature="0" />
  <path
     d="m 246.158,513.77157 c 0,0 10.337,4.522 13.783,2.799"
     id="path623"
     style="font-size:12px;fill:none;stroke:#000000;stroke-width:1.37831001pt"
     inkscape:connector-curvature="0" />
  <path
     d="m 238.303,531.50057 c 0,0 4.624,8.114 11.086,5.313"
     id="path624"
     style="font-size:12px;fill:none;stroke:#000000;stroke-width:1.37831001pt"
     inkscape:connector-curvature="0" />
  <path
     d="m 320.459,467.68357 c 0,0 1.291,21.751 -5.169,29.504 -6.462,7.753 1.513,23.856 1.513,23.856"
     id="path625"
     style="font-size:12px;fill:none;stroke:#000000;stroke-width:1.37831001pt"
     inkscape:connector-curvature="0" />
  <path
     d="m 336.826,466.60657 c 0.215,0.43 4.091,34.673 -4.524,44.364"
     id="path626"
     style="font-size:12px;fill:none;stroke:#000000;stroke-width:1.37831001pt"
     inkscape:connector-curvature="0" />
  <path
     d="m 369.776,459.71557 c 0,0 12.636,24.449 -0.071,36.509"
     id="path627"
     style="font-size:12px;fill:none;stroke:#000000;stroke-width:1.37831001pt"
     inkscape:connector-curvature="0" />
  <path
     d="m 405.956,467.25157 c 0,0 -7.323,21.753 -17.66,29.074"
     id="path628"
     style="font-size:12px;fill:none;stroke:#000000;stroke-width:1.37831001pt"
     inkscape:connector-curvature="0" />
  <path
     d="m 441.922,468.11357 c 0,0 -34.028,58.148 28.858,58.148"
     id="path629"
     style="font-size:12px;fill:none;stroke:#000000;stroke-width:1.37831001pt"
     inkscape:connector-curvature="0" />
  <path
     d="m 395.619,488.78757 c 0,-0.215 34.845,0.097 37.213,6.557"
     id="path630"
     style="font-size:12px;fill:none;stroke:#000000;stroke-width:1.37831001pt"
     inkscape:connector-curvature="0" />
  <path
     d="m 407.033,524.97057 c 0.431,-0.432 24.982,-2.801 29.505,-11.631"
     id="path631"
     style="font-size:12px;fill:none;stroke:#000000;stroke-width:1.37831001pt"
     inkscape:connector-curvature="0" />
  <path
     d="m 436.563,538.18257 c 0.216,0 15.05,-8.905 12.036,-15.152"
     id="path632"
     style="font-size:12px;fill:none;stroke:#000000;stroke-width:1.37831001pt"
     inkscape:connector-curvature="0" />
  <path
     d="m 435.246,451.53057 c 1.722,22.613 -26.059,35.535 -37.043,33.382"
     id="path633"
     style="font-size:12px;fill:none;stroke:#000000;stroke-width:1.37831001pt"
     inkscape:connector-curvature="0" />
  <path
     d="m 433.093,465.09857 c 0,0 19.383,9.476 35.964,-5.815"
     id="path634"
     style="font-size:12px;fill:none;stroke:#000000;stroke-width:1.37831001pt"
     inkscape:connector-curvature="0" />
  <path
     d="m 464.535,451.96257 c 0,0 7.323,13.136 16.152,12.275 11.629,-3.446 15.936,3.661 15.936,3.661"
     id="path635"
     style="font-size:12px;fill:none;stroke:#000000;stroke-width:1.37831001pt"
     inkscape:connector-curvature="0" />
  <path
     d="m 513.422,421.81157 c 0,0 -0.862,32.735 45.225,39.41 51.472,14.215 75.807,6.677 78.823,64.394 -1.938,21.967 -4.668,46.778 -20.604,37.301"
     id="path636"
     style="font-size:12px;fill:none;stroke:#000000;stroke-width:1.37831001pt"
     inkscape:connector-curvature="0" />
  <path
     d="m 622.61,546.28957 c 0,0 7.607,6.391 12.776,-2.007"
     id="path637"
     style="font-size:12px;fill:none;stroke:#000000;stroke-width:1.37831001pt"
     inkscape:connector-curvature="0" />
  <path
     d="m 623.618,529.35257 c 0,0 9.399,1.697 13.706,-7.347"
     id="path638"
     style="font-size:12px;fill:none;stroke:#000000;stroke-width:1.37831001pt"
     inkscape:connector-curvature="0" />
  <path
     d="m 620.982,507.41157 c 0,0 10.167,2.534 13.397,-4.143"
     id="path639"
     style="font-size:12px;fill:none;stroke:#000000;stroke-width:1.37831001pt"
     inkscape:connector-curvature="0" />
  <path
     d="m 621.317,480.60457 c 0,0 -7.727,15.126 -10.526,16.634"
     id="path640"
     style="font-size:12px;fill:none;stroke:#000000;stroke-width:1.37831001pt"
     inkscape:connector-curvature="0" />
  <path
     d="m 601.289,470.91457 c 0,0 0.432,16.151 -6.46,22.612"
     id="path641"
     style="font-size:12px;fill:none;stroke:#000000;stroke-width:1.37831001pt"
     inkscape:connector-curvature="0" />
  <path
     d="m 579.538,467.03657 c 0,0 -0.215,13.353 -11.199,22.613"
     id="path642"
     style="font-size:12px;fill:none;stroke:#000000;stroke-width:1.37831001pt"
     inkscape:connector-curvature="0" />
  <path
     d="m 539.05,485.55857 c 0.215,-0.216 17.659,-19.383 13.137,-25.198"
     id="path643"
     style="font-size:12px;fill:none;stroke:#000000;stroke-width:1.37831001pt"
     inkscape:connector-curvature="0" />
  <path
     d="m 533.235,452.60757 c 0,0 -2.299,18.453 -20.82,21.252"
     id="path644"
     style="font-size:12px;fill:none;stroke:#000000;stroke-width:1.37831001pt"
     inkscape:connector-curvature="0" />
  <path
     d="m 254.866,416.70357 c 0,0 35.657,-21.381 37.595,-37.102"
     id="path645"
     style="font-size:12px;fill:none;stroke:#000000;stroke-width:1.37831001pt"
     inkscape:connector-curvature="0" />
  <path
     d="m 256.065,398.12157 c 0,-0.215 22.33,-5.693 31.591,-30.244"
     id="path646"
     style="font-size:12px;fill:none;stroke:#000000;stroke-width:1.37831001pt"
     inkscape:connector-curvature="0" />
  <path
     d="m 256.71,384.55357 c 1.94,0.861 26.367,-16.732 27.014,-29.653"
     id="path647"
     style="font-size:12px;fill:none;stroke:#000000;stroke-width:1.37831001pt"
     inkscape:connector-curvature="0" />
  <path
     d="m 258.218,368.83257 c 7.107,-1.938 20.183,-17.753 22.767,-26.152"
     id="path648"
     style="font-size:12px;fill:none;stroke:#000000;stroke-width:1.37831001pt"
     inkscape:connector-curvature="0" />
  <path
     d="m 261.449,351.81857 c 0,0 10.122,-7.107 17.875,-17.875"
     id="path649"
     style="font-size:12px;fill:none;stroke:#000000;stroke-width:1.37831001pt"
     inkscape:connector-curvature="0" />
  <path
     d="m 265.369,331.63057 c 0.215,5.815 9.437,-2.048 13.098,-7.002"
     id="path650"
     style="font-size:12px;fill:none;stroke:#000000;stroke-width:1.37831001pt"
     inkscape:connector-curvature="0" />
  <path
     d="m 285.354,393.38457 4.308,5.383"
     id="path651"
     style="font-size:12px;fill:none;stroke:#000000;stroke-width:1.37831001pt"
     inkscape:connector-curvature="0" />
  <path
     d="m 276.246,401.77157 2.862,4.534"
     id="path652"
     style="font-size:12px;fill:none;stroke:#000000;stroke-width:1.37831001pt"
     inkscape:connector-curvature="0" />
  <path
     d="m 266.403,409.96657 c 0,0.215 3.445,4.954 3.445,4.954"
     id="path653"
     style="font-size:12px;fill:none;stroke:#000000;stroke-width:1.37831001pt"
     inkscape:connector-curvature="0" />
  <path
     d="m 260.372,413.41257 c 0,0 0.215,6.891 3.661,7.321"
     id="path654"
     style="font-size:12px;fill:none;stroke:#000000;stroke-width:1.37831001pt"
     inkscape:connector-curvature="0" />
  <path
     d="m 261.879,395.96857 c 0,0 3.877,13.137 7.323,10.982"
     id="path655"
     style="font-size:12px;fill:none;stroke:#000000;stroke-width:1.37831001pt"
     inkscape:connector-curvature="0" />
  <path
     d="m 271.786,389.72157 c 0.215,0.432 4.307,12.277 4.307,12.277"
     id="path656"
     style="font-size:12px;fill:none;stroke:#000000;stroke-width:1.37831001pt"
     inkscape:connector-curvature="0" />
  <path
     d="m 280.401,381.75357 5.168,10.338"
     id="path657"
     style="font-size:12px;fill:none;stroke:#000000;stroke-width:1.37831001pt"
     inkscape:connector-curvature="0" />
  <path
     d="m 274.58,371.84257 c 0.216,0.215 5.606,7.974 7.112,6.897"
     id="path658"
     style="font-size:12px;fill:none;stroke:#000000;stroke-width:1.37831001pt"
     inkscape:connector-curvature="0" />
  <path
     d="m 266.833,378.95457 c 0,0 3.015,11.845 5.383,10.767"
     id="path659"
     style="font-size:12px;fill:none;stroke:#000000;stroke-width:1.37831001pt"
     inkscape:connector-curvature="0" />
  <path
     d="m 256.539,387.84457 5.556,8.339"
     id="path660"
     style="font-size:12px;fill:none;stroke:#000000;stroke-width:1.37831001pt"
     inkscape:connector-curvature="0" />
  <path
     d="m 264.68,364.95557 c 0,0 1.938,12.491 3.66,12.061"
     id="path661"
     style="font-size:12px;fill:none;stroke:#000000;stroke-width:1.37831001pt"
     inkscape:connector-curvature="0" />
  <path
     d="m 271.884,357.83757 c 0,0.215 5.501,10.565 5.932,10.565"
     id="path662"
     style="font-size:12px;fill:none;stroke:#000000;stroke-width:1.37831001pt"
     inkscape:connector-curvature="0" />
  <path
     d="m 260.802,356.34057 c 0.215,0 6.031,6.677 6.031,6.677"
     id="path663"
     style="font-size:12px;fill:none;stroke:#000000;stroke-width:1.37831001pt"
     inkscape:connector-curvature="0" />
  <path
     d="m 269.417,346.00357 c 0.215,0.216 4.954,8.184 4.954,8.184"
     id="path664"
     style="font-size:12px;fill:none;stroke:#000000;stroke-width:1.37831001pt"
     inkscape:connector-curvature="0" />
  <path
     d="m 271.786,331.57557 c 0,0 0,9.259 1.938,9.476"
     id="path665"
     style="font-size:12px;fill:none;stroke:#000000;stroke-width:1.37831001pt"
     inkscape:connector-curvature="0" />
  <path
     d="m 267.264,324.46757 4.737,6.891"
     id="path666"
     style="font-size:12px;fill:none;stroke:#000000;stroke-width:1.37831001pt"
     inkscape:connector-curvature="0" />
</svg>
